<svg width="206" height="117" viewBox="0 0 206 117" fill="none" xmlns="http://www.w3.org/2000/svg">
<rect width="206" height="117" fill="white"/>
<path d="M36.2695 71H31.7383C31.6341 71 31.582 70.9349 31.582 70.8047L31.6602 43.3242C31.6602 43.2201 31.7122 43.168 31.8164 43.168H36.6992C36.8034 43.168 36.8945 43.2201 36.9727 43.3242L40.625 48.5977L44.2578 43.3242C44.3359 43.2201 44.4336 43.168 44.5508 43.168H49.4531C49.5703 43.168 49.6289 43.2201 49.6289 43.3242L49.707 70.8047C49.707 70.9349 49.6549 71 49.5508 71H45.0195C44.9154 71 44.8633 70.9349 44.8633 70.8047L44.8242 50.3945L40.625 56.4883L36.4648 50.3945L36.4258 70.8047C36.4258 70.9349 36.3737 71 36.2695 71ZM72.5523 71H59.6227C59.5185 71 59.4664 70.9349 59.4664 70.8047L59.5055 43.3242C59.5055 43.2201 59.5576 43.168 59.6617 43.168H72.5133C72.6174 43.168 72.6695 43.2331 72.6695 43.3633V47.8359C72.6695 47.9401 72.6174 47.9922 72.5133 47.9922H64.3102V54.2422H72.5133C72.6174 54.2422 72.6695 54.2943 72.6695 54.3984L72.7086 58.9297C72.7086 59.0339 72.6565 59.0859 72.5523 59.0859H64.3102V66.0781H72.5523C72.6565 66.0781 72.7086 66.1432 72.7086 66.2734V70.8438C72.7086 70.9479 72.6565 71 72.5523 71ZM95.7492 71H82.8195C82.7154 71 82.6633 70.9349 82.6633 70.8047L82.7023 43.3633C82.7023 43.2331 82.7674 43.168 82.8977 43.168H87.3508C87.481 43.168 87.5461 43.2331 87.5461 43.3633L87.507 66.0781H95.7492C95.8794 66.0781 95.9445 66.1432 95.9445 66.2734V70.8047C95.9445 70.9349 95.8794 71 95.7492 71ZM118.048 71H105.118C105.014 71 104.962 70.9349 104.962 70.8047L105.001 43.3633C105.001 43.2331 105.066 43.168 105.196 43.168H109.649C109.779 43.168 109.845 43.2331 109.845 43.3633L109.805 66.0781H118.048C118.178 66.0781 118.243 66.1432 118.243 66.2734V70.8047C118.243 70.9349 118.178 71 118.048 71ZM134.662 71.3906C133.243 71.3906 131.935 71.026 130.737 70.2969C129.552 69.5677 128.595 68.5977 127.866 67.3867C127.149 66.1628 126.791 64.8216 126.791 63.3633L126.83 50.6875C126.83 49.2031 127.189 47.8685 127.905 46.6836C128.608 45.4857 129.558 44.5286 130.756 43.8125C131.954 43.0833 133.256 42.7188 134.662 42.7188C136.121 42.7188 137.429 43.0768 138.588 43.793C139.76 44.5091 140.698 45.4727 141.401 46.6836C142.117 47.8815 142.475 49.2161 142.475 50.6875L142.514 63.3633C142.514 64.8216 142.162 66.1562 141.459 67.3672C140.743 68.5911 139.793 69.5677 138.608 70.2969C137.423 71.026 136.108 71.3906 134.662 71.3906ZM134.662 66.5664C135.47 66.5664 136.173 66.2409 136.772 65.5898C137.371 64.9258 137.67 64.1836 137.67 63.3633L137.631 50.6875C137.631 49.8021 137.351 49.0534 136.791 48.4414C136.232 47.8294 135.522 47.5234 134.662 47.5234C133.842 47.5234 133.139 47.8229 132.553 48.4219C131.967 49.0208 131.674 49.776 131.674 50.6875V63.3633C131.674 64.2357 131.967 64.9909 132.553 65.6289C133.139 66.2539 133.842 66.5664 134.662 66.5664ZM159.656 71H154.812C154.695 71 154.63 70.9349 154.617 70.8047L149.891 43.3242C149.865 43.2201 149.904 43.168 150.008 43.168H154.5C154.604 43.168 154.669 43.2201 154.695 43.3242L157.254 61.3906L159.891 43.3242C159.917 43.2201 159.995 43.168 160.125 43.168H163.738C163.842 43.168 163.908 43.2201 163.934 43.3242L166.531 61.3906L169.129 43.3242C169.155 43.2201 169.22 43.168 169.324 43.168H173.777C173.908 43.168 173.96 43.2201 173.934 43.3242L169.168 70.8047C169.155 70.8568 169.116 70.9023 169.051 70.9414L168.973 71H164.129C164.051 71 163.986 70.9349 163.934 70.8047L161.883 56.4492L159.852 70.8047C159.839 70.9349 159.773 71 159.656 71Z" fill="#404040"/>
</svg>
