<svg width="143" height="30" viewBox="0 0 143 30" fill="none" xmlns="http://www.w3.org/2000/svg">
<path d="M5.26953 29H0.738281C0.634115 29 0.582031 28.9349 0.582031 28.8047L0.660156 1.32422C0.660156 1.22005 0.71224 1.16797 0.816406 1.16797H5.69922C5.80339 1.16797 5.89453 1.22005 5.97266 1.32422L9.625 6.59766L13.2578 1.32422C13.3359 1.22005 13.4336 1.16797 13.5508 1.16797H18.4531C18.5703 1.16797 18.6289 1.22005 18.6289 1.32422L18.707 28.8047C18.707 28.9349 18.6549 29 18.5508 29H14.0195C13.9154 29 13.8633 28.9349 13.8633 28.8047L13.8242 8.39453L9.625 14.4883L5.46484 8.39453L5.42578 28.8047C5.42578 28.9349 5.3737 29 5.26953 29ZM41.5523 29H28.6227C28.5185 29 28.4664 28.9349 28.4664 28.8047L28.5055 1.32422C28.5055 1.22005 28.5576 1.16797 28.6617 1.16797H41.5133C41.6174 1.16797 41.6695 1.23307 41.6695 1.36328V5.83594C41.6695 5.9401 41.6174 5.99219 41.5133 5.99219H33.3102V12.2422H41.5133C41.6174 12.2422 41.6695 12.2943 41.6695 12.3984L41.7086 16.9297C41.7086 17.0339 41.6565 17.0859 41.5523 17.0859H33.3102V24.0781H41.5523C41.6565 24.0781 41.7086 24.1432 41.7086 24.2734V28.8438C41.7086 28.9479 41.6565 29 41.5523 29ZM64.7492 29H51.8195C51.7154 29 51.6633 28.9349 51.6633 28.8047L51.7023 1.36328C51.7023 1.23307 51.7674 1.16797 51.8977 1.16797H56.3508C56.481 1.16797 56.5461 1.23307 56.5461 1.36328L56.507 24.0781H64.7492C64.8794 24.0781 64.9445 24.1432 64.9445 24.2734V28.8047C64.9445 28.9349 64.8794 29 64.7492 29ZM87.0477 29H74.118C74.0138 29 73.9617 28.9349 73.9617 28.8047L74.0008 1.36328C74.0008 1.23307 74.0659 1.16797 74.1961 1.16797H78.6492C78.7794 1.16797 78.8445 1.23307 78.8445 1.36328L78.8055 24.0781H87.0477C87.1779 24.0781 87.243 24.1432 87.243 24.2734V28.8047C87.243 28.9349 87.1779 29 87.0477 29ZM103.662 29.3906C102.243 29.3906 100.935 29.026 99.7367 28.2969C98.5518 27.5677 97.5948 26.5977 96.8656 25.3867C96.1495 24.1628 95.7914 22.8216 95.7914 21.3633L95.8305 8.6875C95.8305 7.20312 96.1885 5.86849 96.9047 4.68359C97.6078 3.48568 98.5583 2.52865 99.7562 1.8125C100.954 1.08333 102.256 0.71875 103.662 0.71875C105.121 0.71875 106.429 1.07682 107.588 1.79297C108.76 2.50911 109.698 3.47266 110.401 4.68359C111.117 5.88151 111.475 7.21615 111.475 8.6875L111.514 21.3633C111.514 22.8216 111.162 24.1562 110.459 25.3672C109.743 26.5911 108.793 27.5677 107.608 28.2969C106.423 29.026 105.108 29.3906 103.662 29.3906ZM103.662 24.5664C104.47 24.5664 105.173 24.2409 105.772 23.5898C106.371 22.9258 106.67 22.1836 106.67 21.3633L106.631 8.6875C106.631 7.80208 106.351 7.05339 105.791 6.44141C105.232 5.82943 104.522 5.52344 103.662 5.52344C102.842 5.52344 102.139 5.82292 101.553 6.42188C100.967 7.02083 100.674 7.77604 100.674 8.6875V21.3633C100.674 22.2357 100.967 22.9909 101.553 23.6289C102.139 24.2539 102.842 24.5664 103.662 24.5664ZM128.656 29H123.812C123.695 29 123.63 28.9349 123.617 28.8047L118.891 1.32422C118.865 1.22005 118.904 1.16797 119.008 1.16797H123.5C123.604 1.16797 123.669 1.22005 123.695 1.32422L126.254 19.3906L128.891 1.32422C128.917 1.22005 128.995 1.16797 129.125 1.16797H132.738C132.842 1.16797 132.908 1.22005 132.934 1.32422L135.531 19.3906L138.129 1.32422C138.155 1.22005 138.22 1.16797 138.324 1.16797H142.777C142.908 1.16797 142.96 1.22005 142.934 1.32422L138.168 28.8047C138.155 28.8568 138.116 28.9023 138.051 28.9414L137.973 29H133.129C133.051 29 132.986 28.9349 132.934 28.8047L130.883 14.4492L128.852 28.8047C128.839 28.9349 128.773 29 128.656 29Z" fill="#404040"/>
</svg>
